<svg xmlns="http://www.w3.org/2000/svg" xmlns:xlink="http://www.w3.org/1999/xlink" version="1.1" x="0px" y="0px" viewBox="0 0 100 125" enable-background="new 0 0 100 100" xml:space="preserve"><path fill="#000000" d="M78.848,30.553c0.055-0.005,0.094-0.029,0.146-0.038c6.129-0.389,10.992-5.935,10.992-12.739  C89.986,10.72,84.76,5,78.311,5c-2.459,0-4.736,0.836-6.617,2.256l-0.002-0.002c-5.531,2.78-6.727,13.421-10.613,19.334  C57.42,32.154,53.324,35.742,50,38.02c-3.323-2.278-7.42-5.866-11.079-11.432c-3.886-5.913-5.081-16.554-10.612-19.334l-0.001,0.002  C26.425,5.836,24.147,5,21.688,5c-6.447,0-11.674,5.72-11.674,12.776c0,6.804,4.864,12.35,10.992,12.739  c0.052,0.009,0.091,0.032,0.146,0.038c5.924,0.274,8.845-3.923,10.214-4.218c1.159,1.242,7.142,12.944,11.678,19.226  c-7.489,10.596-22.526,31.945-23.377,33.16C18.569,80.287,15.109,89.6,20.51,95C23.033,91.688,41.484,66.249,50,54.552  C58.516,66.249,76.967,91.688,79.49,95c5.4-5.4,1.941-14.713,0.844-16.279c-0.852-1.215-15.889-22.563-23.379-33.159  c4.537-6.282,10.52-17.984,11.68-19.227C70.004,26.629,72.924,30.827,78.848,30.553z M71.404,16.917  c0.008-0.085,0.023-0.167,0.035-0.251c0.027-0.199,0.057-0.397,0.098-0.591c0.02-0.087,0.041-0.173,0.061-0.259  c0.049-0.194,0.102-0.385,0.162-0.572c0.023-0.071,0.047-0.143,0.072-0.213c0.076-0.216,0.16-0.427,0.254-0.633  c0.018-0.035,0.031-0.071,0.047-0.106c0.486-1.023,1.178-1.912,2.016-2.6c1.16-0.953,2.6-1.525,4.162-1.525  c3.842,0,6.955,3.407,6.955,7.61c0,3.569-2.248,6.556-5.279,7.378c-0.254,0.068-0.512,0.122-0.775,0.161  c-0.021,0.003-0.043,0.008-0.064,0.011c-0.273,0.038-0.553,0.06-0.836,0.06c-3.84,0-6.953-3.407-6.953-7.61  C71.357,17.485,71.375,17.2,71.404,16.917z M21.688,25.386c-0.283,0-0.562-0.022-0.835-0.06c-0.021-0.003-0.042-0.008-0.064-0.011  c-0.263-0.04-0.523-0.092-0.777-0.161c-3.029-0.823-5.276-3.809-5.276-7.378c0-4.203,3.113-7.61,6.953-7.61  c1.564,0,3.002,0.572,4.164,1.525c0.837,0.687,1.528,1.576,2.014,2.599c0.017,0.037,0.032,0.074,0.048,0.111  c0.093,0.204,0.177,0.414,0.254,0.627c0.025,0.072,0.049,0.145,0.073,0.217c0.06,0.187,0.113,0.376,0.16,0.569  c0.021,0.086,0.043,0.173,0.061,0.261c0.041,0.194,0.072,0.392,0.099,0.591c0.011,0.083,0.026,0.166,0.035,0.25  c0.029,0.282,0.047,0.568,0.047,0.859C28.643,21.979,25.529,25.386,21.688,25.386z"/><text x="0" y="115" fill="#000000" font-size="5px" font-weight="bold" font-family="'Helvetica Neue', Helvetica, Arial-Unicode, Arial, Sans-serif">Created by José Campos</text><text x="0" y="120" fill="#000000" font-size="5px" font-weight="bold" font-family="'Helvetica Neue', Helvetica, Arial-Unicode, Arial, Sans-serif">from the Noun Project</text></svg>