<svg xmlns="http://www.w3.org/2000/svg" xmlns:xlink="http://www.w3.org/1999/xlink" version="1.1" x="0px" y="0px" viewBox="0 0 512 640" enable-background="new 0 0 512 512" xml:space="preserve"><g><g><path d="M432.4,300.9c-7.1-3.2-15.5,0-18.7,7.1c-3.2,7.1,0,15.5,7.1,18.7c38.8,17.5,61,40.2,61,62.3c0,43.9-92.7,92.9-225.8,92.9    S30.2,432.8,30.2,388.9c0-22.1,22.2-44.9,61-62.3c7.1-3.2,10.3-11.6,7.1-18.7c-3.2-7.1-11.6-10.3-18.7-7.1    C29.6,323.4,2,354.7,2,388.9C2,456.8,113.6,510,256,510s254-53.2,254-121.1C510,354.7,482.4,323.4,432.4,300.9z"/><path d="M256,407.7c73.1,0,132.6-59.5,132.6-132.6c0-67.5-108.2-246.2-120.5-266.4c-2.6-4.2-7.1-6.7-12-6.7s-9.5,2.6-12,6.7    c-12.3,20.2-120.5,198.9-120.5,266.4C123.5,348.2,182.9,407.7,256,407.7z M154.5,255.6h46.3c7.8,0,14.1-6.3,14.1-14.1    s-6.3-14.1-14.1-14.1h-37.5c3.3-8.9,7.1-18.4,11.4-28.2h61.4c7.8,0,14.1-6.3,14.1-14.1s-6.3-14.1-14.1-14.1h-48.4    c21.8-45.7,49-94.5,68.4-127.3c37.4,63.5,104.4,186.6,104.4,231.6c0,57.5-46.8,104.4-104.4,104.4c-57.5,0-104.4-46.8-104.4-104.4    C151.7,269.7,152.7,263.1,154.5,255.6z"/></g></g><text x="0" y="527" fill="#000000" font-size="5px" font-weight="bold" font-family="'Helvetica Neue', Helvetica, Arial-Unicode, Arial, Sans-serif">Created by Icon Fair</text><text x="0" y="532" fill="#000000" font-size="5px" font-weight="bold" font-family="'Helvetica Neue', Helvetica, Arial-Unicode, Arial, Sans-serif">from the Noun Project</text></svg>