<svg xmlns="http://www.w3.org/2000/svg" xmlns:xlink="http://www.w3.org/1999/xlink" version="1.1" x="0px" y="0px" viewBox="-434 236 90 112.5" style="enable-background:new -434 236 90 90;" xml:space="preserve"><style type="text/css">
	.st0{stroke:#000000;stroke-miterlimit:10;}
</style><path class="st0" d="M-381.3,240.2c0,0,0,0,0,2c0,1.4-0.8,5.9-1.4,8.7h-12.6c-0.6-2.8-1.4-7.3-1.4-8.7c0-2,0-2,0-2s1.9-4.8,7.7-0.8  C-383.2,235.4-381.3,240.2-381.3,240.2z"/><path class="st0" d="M-358.8,315.2l-18.1-50.3l14.7,54.2c0,0,0,0.7-0.2,0.8c-1.2,0.4-4.7,1.4-7.4,1.7c-2.7,0.3-7.3-0.3-8.6-0.5  c-0.2,0-0.4-0.6-0.4-0.6l-4.9-55.7v57.8c0,0-0.3,0.6-0.4,0.7c-1.9,0.6-4.7,0.9-4.8,0.8c-0.1,0-0.1,0-0.2,0c-1.4,0-2.9-0.3-4.6-0.8  c-0.1,0-0.4-0.6-0.4-0.6v-57.9l-4.9,55.7c0,0-0.2,0.5-0.6,0.5c-1.5,0.2-5.9,0.7-8.5,0.4c-2.7-0.3-6.3-1.4-7.5-1.7  c-0.2-0.1-0.2-0.8-0.2-0.8l14.7-54.2l-18.1,50.3c-0.7,0-1-0.6-0.4-2.5c1.7-4.7,11.7-48,23.3-59.2l0.2-0.3h14.2l0.2,0.3  c11.6,11.2,21.6,54.5,23.3,59.2C-357.8,314.6-358.1,315.2-358.8,315.2z"/><text x="-434" y="341" fill="#000000" font-size="5px" font-weight="bold" font-family="'Helvetica Neue', Helvetica, Arial-Unicode, Arial, Sans-serif">Created by Third Eye</text><text x="-434" y="346" fill="#000000" font-size="5px" font-weight="bold" font-family="'Helvetica Neue', Helvetica, Arial-Unicode, Arial, Sans-serif">from the Noun Project</text></svg>